<?xml version="1.0" standalone="no"?>
<!DOCTYPE svg PUBLIC "-//W3C//DTD SVG 20010904//EN"
 "http://www.w3.org/TR/2001/REC-SVG-20010904/DTD/svg10.dtd">
<svg version="1.0" xmlns="http://www.w3.org/2000/svg"
 width="179.000000pt" height="182.000000pt" viewBox="0 0 179.000000 182.000000"
 preserveAspectRatio="xMidYMid meet">

<g transform="translate(0.000000,182.000000) scale(0.100000,-0.100000)"
fill="#000000" stroke="none">
<path d="M0 910 l0 -910 895 0 895 0 0 910 0 910 -895 0 -895 0 0 -910z m1770
30 l0 -820 -34 0 c-34 0 -35 -1 -38 -42 l-3 -43 -825 0 -825 0 0 825 0 825 43
3 c41 3 42 4 42 38 l0 34 820 0 820 0 0 -820z"/>
<path d="M528 1703 c215 -2 569 -2 785 0 215 1 39 2 -393 2 -432 0 -608 -1
-392 -2z"/>
<path d="M1705 910 c0 -432 1 -608 2 -393 2 216 2 570 0 785 -1 216 -2 40 -2
-392z"/>
<path d="M627 1523 c-4 -3 -7 -24 -7 -45 l0 -38 -100 0 c-100 0 -100 0 -138
-34 l-37 -34 0 -557 0 -557 37 -34 38 -34 451 0 451 0 39 39 39 39 0 541 c0
585 0 583 -53 613 -12 7 -67 15 -122 18 l-100 5 -3 43 -3 42 -243 0 c-133 0
-246 -3 -249 -7z m443 -108 l0 -65 -195 0 -195 0 0 65 0 65 195 0 195 0 0 -65z
m-448 -72 l3 -48 245 0 245 0 5 45 5 45 81 3 c75 3 85 1 110 -22 l29 -24 3
-514 c1 -282 0 -523 -3 -535 -12 -51 -31 -53 -479 -53 l-415 0 -28 24 -28 24
0 527 0 527 28 24 c25 21 38 24 112 24 l84 0 3 -47z"/>
<path d="M1024 1167 c-2 -7 -3 -58 -2 -113 l3 -99 110 0 110 0 0 110 0 110
-108 3 c-83 2 -109 0 -113 -11z m176 -97 l0 -60 -60 0 -60 0 0 60 0 60 60 0
60 0 0 -60z"/>
<path d="M502 1141 c-8 -5 -12 -17 -10 -27 3 -18 16 -19 228 -19 212 0 225 1
228 19 2 10 -2 22 -10 27 -17 11 -419 11 -436 0z"/>
<path d="M623 1024 c-11 -30 13 -35 168 -32 151 3 154 3 157 26 l3 22 -161 0
c-137 0 -162 -2 -167 -16z"/>
<path d="M1032 868 c-16 -16 -17 -199 0 -216 14 -14 185 -17 206 -4 9 6 12 37
10 118 l-3 109 -100 3 c-70 2 -104 -1 -113 -10z m168 -108 l0 -60 -60 0 -60 0
0 60 0 60 60 0 60 0 0 -60z"/>
<path d="M497 834 c-13 -13 -7 -42 9 -48 24 -9 417 -7 432 3 8 5 12 17 10 27
-3 18 -17 19 -224 22 -121 1 -223 -1 -227 -4z"/>
<path d="M624 725 c-4 -8 -1 -22 6 -30 10 -12 41 -15 154 -15 77 0 147 4 154
9 8 5 12 17 10 27 -3 18 -16 19 -161 22 -134 2 -158 0 -163 -13z"/>
<path d="M497 564 c-13 -13 -7 -42 9 -48 24 -9 417 -7 432 3 8 5 12 17 10 27
-3 18 -17 19 -224 22 -121 1 -223 -1 -227 -4z"/>
<path d="M1024 557 c-2 -7 -3 -58 -2 -113 l3 -99 110 0 110 0 0 110 0 110
-108 3 c-83 2 -109 0 -113 -11z m176 -108 l0 -59 -60 0 -60 0 0 59 0 60 53 3
c28 2 55 2 60 0 4 -2 7 -30 7 -63z"/>
<path d="M624 455 c-4 -8 -1 -22 6 -30 10 -12 41 -15 154 -15 77 0 147 4 154
9 8 5 12 17 10 27 -3 18 -16 19 -161 22 -134 2 -158 0 -163 -13z"/>
</g>
</svg>
